HIERARCHY
ROOT Hips
{
 OFFSET 0.000000 0.000000 0.000000
 CHANNELS 6 Xposition Yposition Zposition Yrotation Xrotation Zrotation
 JOINT Chest
 {
  OFFSET 0.000000 9.857222 0.000240
  CHANNELS 3 Yrotation Xrotation Zrotation
  JOINT Chest2
  {
   OFFSET 0.000000 10.876940 -0.000436
   CHANNELS 3 Yrotation Xrotation Zrotation
   JOINT Chest3
   {
    OFFSET 0.000000 9.827798 0.000000
    CHANNELS 3 Yrotation Xrotation Zrotation
    JOINT Chest4
    {
     OFFSET 0.000000 9.827798 0.000000
     CHANNELS 3 Yrotation Xrotation Zrotation
     JOINT Neck
     {
      OFFSET 0.000000 13.831992 0.000000
      CHANNELS 3 Yrotation Xrotation Zrotation
      JOINT Head
      {
       OFFSET 0.000000 9.147643 -0.001036
       CHANNELS 3 Yrotation Xrotation Zrotation
       End Site
       {
        OFFSET 0.000000 17.515799 -0.000541
       }
      }
     }
     JOINT RightCollar
     {
      OFFSET -3.001579 7.717577 0.000000
      CHANNELS 3 Yrotation Xrotation Zrotation
      JOINT RightShoulder
      {
       OFFSET -14.002642 0.000000 0.000000
       CHANNELS 3 Yrotation Xrotation Zrotation
       JOINT RightElbow
       {
        OFFSET -30.053852 0.000000 0.000000
        CHANNELS 3 Yrotation Xrotation Zrotation
        JOINT RightWrist
        {
         OFFSET -24.564923 0.000000 -0.000000
         CHANNELS 3 Yrotation Xrotation Zrotation
         End Site
         {
          OFFSET -18.334355 0.000000 0.000000
         }
        }
       }
      }
     }
     JOINT LeftCollar
     {
      OFFSET 3.001579 7.717577 0.000000
      CHANNELS 3 Yrotation Xrotation Zrotation
      JOINT LeftShoulder
      {
       OFFSET 14.002642 0.000000 0.000000
       CHANNELS 3 Yrotation Xrotation Zrotation
       JOINT LeftElbow
       {
        OFFSET 30.053852 0.000000 0.000000
        CHANNELS 3 Yrotation Xrotation Zrotation
        JOINT LeftWrist
        {
         OFFSET 24.564923 0.000000 -0.000000
         CHANNELS 3 Yrotation Xrotation Zrotation
         End Site
         {
          OFFSET 18.334355 0.000000 0.000000
         }
        }
       }
      }
     }
    }
   }
  }
 }
 JOINT RightHip
 {
  OFFSET -8.003235 -0.001175 -0.000120
  CHANNELS 3 Yrotation Xrotation Zrotation
  JOINT RightKnee
  {
   OFFSET 0.000000 -41.759727 0.000113
   CHANNELS 3 Yrotation Xrotation Zrotation
   JOINT RightAnkle
   {
    OFFSET 0.000000 -40.728748 0.000159
    CHANNELS 3 Yrotation Xrotation Zrotation
    JOINT RightToe
    {
     OFFSET 0.000000 -6.515296 14.732841
     CHANNELS 3 Yrotation Xrotation Zrotation
     End Site
     {
      OFFSET 0.000000 -1.502839 6.412115
     }
    }
   }
  }
 }
 JOINT LeftHip
 {
  OFFSET 8.003235 -0.001175 -0.000120
  CHANNELS 3 Yrotation Xrotation Zrotation
  JOINT LeftKnee
  {
   OFFSET 0.000000 -41.759727 0.000113
   CHANNELS 3 Yrotation Xrotation Zrotation
   JOINT LeftAnkle
   {
    OFFSET 0.000000 -40.728748 0.000159
    CHANNELS 3 Yrotation Xrotation Zrotation
    JOINT LeftToe
    {
     OFFSET 0.000000 -6.515296 14.732841
     CHANNELS 3 Yrotation Xrotation Zrotation
     End Site
     {
      OFFSET 0.000000 -1.502839 6.412115
     }
    }
   }
  }
 }
}
MOTION
Frames: 8
Frame Time: 0.016667
-6.894169 96.058246 -30.083203 -40.685502 -2.023021 -1.419038 3.436276 -3.719072 -0.224141 1.441288 -1.714769 -0.198077 1.441288 -1.714769 -0.198077 1.080329 -1.286553 -0.144502 3.983151 22.673679 -0.124298 7.217567 6.015224 -1.299938 6.534925 27.458505 14.705182 39.603969 -8.676627 78.663065 17.146707 18.438000 -3.752828 2.625948 -3.936637 -17.767808 -25.583104 30.918218 -23.086627 -36.570644 16.456789 -76.833798 -48.324813 -18.387389 15.093804 6.238653 -0.120674 10.579352 0.136837 -3.847073 2.158634 4.599671 16.761907 -9.633038 0.366729 3.567713 -0.641298 1.182732 -1.614534 3.131364 -27.786601 13.011854 4.103085 34.091227 14.299625 -13.844426 12.408401 -12.742836 -13.936841 -0.529685 1.685052 -0.116985
-6.594964 95.040237 -30.016320 -40.352722 -2.382183 -1.336066 2.935139 -3.327335 -0.259922 1.393389 -1.669974 -0.198518 1.393389 -1.669974 -0.198518 1.044426 -1.252941 -0.145071 4.122618 22.768048 -0.171041 7.478995 6.199540 -1.416346 6.840259 27.626212 14.829356 40.850831 -8.883915 78.396304 15.931694 16.022894 -5.800305 2.261345 -4.268661 -17.404989 -25.192362 29.789552 -22.666230 -37.202281 16.538751 -76.380509 -46.045206 -19.580035 13.524747 6.362301 -0.100899 10.526133 -1.411152 -3.162828 2.157634 9.391087 18.346804 -8.937969 -1.192918 1.660541 -0.329041 0.575052 -0.512456 2.458088 -25.635752 13.214348 4.576395 31.291379 14.522241 -14.623423 11.747129 -12.557591 -13.832852 0.014237 1.006626 0.322132
-6.242686 93.768725 -29.982583 -40.360383 -2.427340 -1.225132 2.919956 -3.458143 -0.358940 1.322722 -1.661895 -0.194135 1.322722 -1.661895 -0.194135 0.991444 -1.246848 -0.141994 4.260225 22.940012 -0.189069 7.726839 6.526220 -1.475757 6.955660 27.235112 14.976034 40.364004 -8.803479 78.401133 14.957025 13.972247 -6.054139 1.825011 -4.392758 -17.494410 -25.029834 29.538955 -22.592738 -37.476530 15.992870 -75.454283 -43.646662 -20.278621 11.732511 6.523592 -0.053599 10.498202 -1.560019 -2.805056 1.920067 12.095605 19.489604 -8.236295 -2.616078 0.528238 -0.239201 0.023809 -0.081311 1.997158 -25.709307 12.896475 4.167895 30.709497 14.940847 -14.807603 11.781257 -12.514243 -13.972945 0.159081 0.446308 0.719322
-5.835129 92.256832 -29.982051 -40.143728 -2.287628 -1.226413 2.833337 -3.896639 -0.393960 1.228010 -1.659244 -0.188616 1.228010 -1.659244 -0.188616 0.920431 -1.244818 -0.138118 4.373398 23.115023 -0.184023 7.924197 6.856027 -1.486439 6.842982 27.347040 15.052533 39.786551 -9.089114 78.173424 14.154731 11.564756 -5.912623 1.300468 -4.423774 -17.427632 -25.002833 29.923362 -22.693301 -37.866239 15.189758 -74.216068 -41.493969 -20.831404 10.163261 6.754751 0.000666 10.567995 -0.651126 -2.716761 1.895048 10.980776 19.958166 -8.403764 -2.880498 0.409449 -0.437478 -0.121953 -2.329649 3.858277 -27.477133 12.310746 3.578983 31.444863 15.607484 -14.714047 11.632252 -12.633159 -14.082628 0.284180 0.012345 0.960804
-5.423029 90.502066 -30.154604 -40.068736 -1.449475 -1.747892 2.895726 -5.003885 0.067722 1.152240 -1.683905 -0.191685 1.152240 -1.683905 -0.191685 0.863590 -1.263296 -0.140578 4.453419 23.269731 -0.163468 8.058290 7.145553 -1.461348 6.623086 28.212828 15.074902 39.700340 -9.666942 77.505978 13.793256 9.100917 -5.842620 0.689926 -4.747838 -17.073041 -25.209751 30.554612 -22.953900 -38.502028 14.469508 -72.873477 -39.707128 -21.529882 9.264510 6.942232 0.234361 10.429995 0.936113 -3.471249 2.570294 5.956810 19.346281 -9.290315 -1.268922 -0.204893 -0.503736 0.241666 -4.147573 4.801512 -27.811705 11.447820 3.939802 30.984990 15.867618 -14.929445 12.463768 -14.354889 -12.162939 0.322668 1.145629 -0.360445
-5.278127 89.090557 -30.328233 -40.110111 -1.410822 -2.400181 3.246377 -4.890808 0.694205 1.127295 -1.676411 -0.219124 1.127295 -1.676411 -0.219124 0.844810 -1.257717 -0.161239 4.473815 23.346733 -0.118517 8.080994 7.286358 -1.381348 6.011643 29.135480 14.895069 40.020124 -10.365250 76.513243 14.042156 6.702609 -5.483062 0.197089 -4.867298 -16.671428 -25.757189 30.331050 -23.099997 -39.162338 14.579169 -71.657577 -38.648635 -22.210148 8.331544 6.896078 0.120402 10.605879 0.971360 -3.176198 3.600141 1.999549 18.905831 -10.456961 1.027652 -4.146194 -0.042404 0.658064 -2.615049 4.995601 -25.886706 11.631031 4.519771 27.897196 16.006658 -16.301950 13.808293 -17.195033 -8.204445 -0.091695 1.945786 -0.387986
-6.554272 87.990586 -30.859396 -38.369426 -2.546268 -2.885938 2.321099 -2.798637 1.132976 1.085223 -1.313618 -0.303696 1.085223 -1.313618 -0.303696 0.813229 -0.985757 -0.225430 4.351453 22.805912 -0.101675 7.871782 6.276191 -1.350237 5.694591 23.619527 15.642358 37.743090 -7.337549 78.535485 14.261430 4.729829 -4.407147 0.195398 -4.075766 -16.931203 -24.841357 24.665734 -21.490843 -40.730277 18.132293 -73.865924 -39.861587 -22.907237 7.879414 7.708655 -0.180006 12.179155 0.671188 -1.136037 6.364067 -2.264053 18.752819 -13.921439 0.146482 -9.128766 0.517411 2.848121 -0.390974 5.924990 -29.319420 12.976896 3.673227 32.914323 17.411551 -17.590385 11.512311 -20.277028 -3.137283 -1.551692 2.243084 -1.377337
-6.670252 88.245557 -31.206938 -41.179674 -12.884287 -2.166816 4.752034 1.647040 1.624706 1.335913 1.129500 -0.237019 1.335913 1.129500 -0.237019 1.002340 0.846612 -0.180229 4.390967 22.569146 -0.125156 7.956417 5.840509 -1.416730 6.223669 22.030976 16.623779 40.097619 -6.351631 78.756807 13.129143 2.040443 -4.471473 0.497364 -4.913298 -17.221050 -25.636779 22.666272 -22.859031 -42.380543 18.109016 -78.594746 -40.724884 -20.535821 13.497313 8.244954 -0.713788 13.611500 2.568177 8.354756 5.056873 -1.797845 19.479081 -12.595688 3.506941 -10.738313 1.458318 0.544219 -0.105650 4.765997 -30.324127 20.772342 -6.437511 39.136808 17.149498 -11.710069 10.046363 -20.267960 -2.510282 -2.008964 1.499046 -3.233853
